<svg width="200" height="200" viewBox="0 0 200 200" fill="none" xmlns="http://www.w3.org/2000/svg">
<rect x="10" y="10" width="180" height="180" rx="90" stroke="white" stroke-width="3"/>
<path d="M67.5784 89.2H74.8024V99H73.1364V90.614H69.2444V99H67.5784V89.2ZM79.8064 99.112C78.845 99.112 78.0797 98.8227 77.5104 98.244C76.9504 97.656 76.6704 96.8113 76.6704 95.71V94.716C76.6704 94.212 76.7404 93.7593 76.8804 93.358C77.0297 92.9567 77.2397 92.616 77.5104 92.336C77.7904 92.056 78.1217 91.8413 78.5044 91.692C78.8964 91.5427 79.3304 91.468 79.8064 91.468C80.2824 91.468 80.7117 91.5427 81.0944 91.692C81.4864 91.8413 81.8177 92.056 82.0884 92.336C82.3684 92.616 82.5784 92.9567 82.7184 93.358C82.8677 93.7593 82.9424 94.212 82.9424 94.716V95.71C82.9424 96.8113 82.6577 97.656 82.0884 98.244C81.5284 98.8227 80.7677 99.112 79.8064 99.112ZM79.8064 97.754C80.2917 97.754 80.6697 97.5953 80.9404 97.278C81.2204 96.9607 81.3604 96.438 81.3604 95.71V94.716C81.3604 94.072 81.2204 93.596 80.9404 93.288C80.6697 92.98 80.2917 92.826 79.8064 92.826C79.321 92.826 78.9384 92.98 78.6584 93.288C78.3877 93.596 78.2524 94.072 78.2524 94.716V95.71C78.2524 96.438 78.3877 96.9607 78.6584 97.278C78.9384 97.5953 79.321 97.754 79.8064 97.754ZM87.2969 99.112C86.8302 99.112 86.4102 99.0373 86.0369 98.888C85.6636 98.7387 85.3416 98.5193 85.0709 98.23C84.8002 97.9407 84.5902 97.586 84.4409 97.166C84.3009 96.746 84.2309 96.2607 84.2309 95.71V94.716C84.2309 94.212 84.3009 93.7593 84.4409 93.358C84.5902 92.9567 84.8002 92.616 85.0709 92.336C85.3416 92.056 85.6636 91.8413 86.0369 91.692C86.4102 91.5427 86.8302 91.468 87.2969 91.468C88.1649 91.468 88.8556 91.692 89.3689 92.14C89.8822 92.588 90.1669 93.1713 90.2229 93.89H88.6269C88.5709 93.6007 88.4356 93.3533 88.2209 93.148C88.0156 92.9333 87.7076 92.826 87.2969 92.826C86.8489 92.826 86.4896 92.98 86.2189 93.288C85.9482 93.596 85.8129 94.072 85.8129 94.716V95.71C85.8129 96.438 85.9482 96.9607 86.2189 97.278C86.4896 97.5953 86.8489 97.754 87.2969 97.754C87.7076 97.754 88.0156 97.6467 88.2209 97.432C88.4356 97.2173 88.5709 96.97 88.6269 96.69H90.2229C90.1109 97.446 89.8122 98.0387 89.3269 98.468C88.8416 98.8973 88.1649 99.112 87.2969 99.112ZM93.3784 92.91H91.0964V91.58H97.2284V92.91H94.9464V99H93.3784V92.91ZM100.056 99.084C99.3745 99.084 98.8425 98.8973 98.4598 98.524C98.0772 98.1413 97.8858 97.6 97.8858 96.9C97.8858 96.172 98.1005 95.6167 98.5298 95.234C98.9592 94.842 99.6172 94.646 100.504 94.646H102.142V94.086C102.142 93.6287 102.044 93.302 101.848 93.106C101.652 92.9007 101.335 92.798 100.896 92.798C100.457 92.798 100.149 92.8773 99.9718 93.036C99.7945 93.1947 99.6965 93.3907 99.6778 93.624H98.2498C98.2592 93.2973 98.3152 93.0033 98.4178 92.742C98.5298 92.4713 98.6932 92.2427 98.9078 92.056C99.1225 91.8693 99.3932 91.7247 99.7198 91.622C100.056 91.5193 100.457 91.468 100.924 91.468C101.885 91.468 102.581 91.6827 103.01 92.112C103.449 92.532 103.668 93.19 103.668 94.086V99H102.282V97.796C102.198 97.964 102.095 98.1273 101.974 98.286C101.853 98.4353 101.703 98.5707 101.526 98.692C101.358 98.8133 101.153 98.9113 100.91 98.986C100.667 99.0513 100.383 99.084 100.056 99.084ZM100.532 97.782C101.036 97.782 101.428 97.642 101.708 97.362C101.997 97.0727 102.142 96.662 102.142 96.13V95.794H100.63C100.173 95.794 99.8505 95.8827 99.6638 96.06C99.4865 96.228 99.3978 96.48 99.3978 96.816C99.3978 97.1147 99.4912 97.3527 99.6778 97.53C99.8645 97.698 100.149 97.782 100.532 97.782ZM105.457 91.58H108.313C109.293 91.58 110.002 91.7713 110.441 92.154C110.889 92.5273 111.113 93.0127 111.113 93.61C111.113 93.9553 111.005 94.268 110.791 94.548C110.585 94.828 110.333 95.0193 110.035 95.122C110.492 95.2433 110.833 95.4627 111.057 95.78C111.281 96.088 111.393 96.4613 111.393 96.9C111.393 97.544 111.169 98.0573 110.721 98.44C110.273 98.8133 109.563 99 108.593 99H105.457V91.58ZM108.593 97.74C109.041 97.74 109.358 97.6607 109.545 97.502C109.731 97.334 109.825 97.0913 109.825 96.774C109.825 96.466 109.731 96.2327 109.545 96.074C109.358 95.906 109.041 95.822 108.593 95.822H106.969V97.74H108.593ZM108.313 94.618C108.761 94.618 109.078 94.5433 109.265 94.394C109.451 94.2353 109.545 94.0113 109.545 93.722C109.545 93.4513 109.451 93.2367 109.265 93.078C109.078 92.9193 108.761 92.84 108.313 92.84H106.969V94.618H108.313ZM112.949 91.58H114.391V96.886L117.513 91.58H119.067V99H117.611V93.68L114.489 99H112.949V91.58ZM122.431 92.91H120.149V91.58H126.281V92.91H123.999V99H122.431V92.91ZM127.373 91.58H128.941V94.254H130.383C131.4 94.254 132.137 94.464 132.595 94.884C133.052 95.2947 133.281 95.878 133.281 96.634C133.281 97.3807 133.047 97.964 132.581 98.384C132.123 98.7947 131.391 99 130.383 99H127.373V91.58ZM130.383 97.67C130.887 97.67 131.232 97.586 131.419 97.418C131.605 97.25 131.699 96.984 131.699 96.62C131.699 96.2653 131.605 96.004 131.419 95.836C131.232 95.668 130.887 95.584 130.383 95.584H128.941V97.67H130.383ZM91.1174 112H85.7554V104.58H87.3234V110.67H90.0114V104.58H91.5934V110.67H92.5734V113.75H91.1174V112ZM96.6485 112.112C96.1818 112.112 95.7618 112.037 95.3885 111.888C95.0151 111.739 94.6931 111.519 94.4225 111.23C94.1518 110.941 93.9418 110.586 93.7925 110.166C93.6525 109.746 93.5825 109.261 93.5825 108.71V107.716C93.5825 106.671 93.8485 105.868 94.3805 105.308C94.9218 104.748 95.6545 104.468 96.5785 104.468C97.5025 104.468 98.2305 104.748 98.7625 105.308C99.3038 105.868 99.5745 106.68 99.5745 107.744V108.738H95.1645C95.1738 109.503 95.3091 110.04 95.5705 110.348C95.8318 110.656 96.1911 110.81 96.6485 110.81C97.0311 110.81 97.3158 110.717 97.5025 110.53C97.6985 110.343 97.8198 110.129 97.8665 109.886H99.4345C99.3038 110.586 99.0051 111.132 98.5385 111.524C98.0811 111.916 97.4511 112.112 96.6485 112.112ZM96.6065 105.77C96.1585 105.77 95.8085 105.905 95.5565 106.176C95.3138 106.447 95.1831 106.909 95.1645 107.562H98.0905C98.0718 106.909 97.9365 106.447 97.6845 106.176C97.4325 105.905 97.0731 105.77 96.6065 105.77ZM100.506 110.628C101.038 110.553 101.402 110.259 101.598 109.746C101.803 109.223 101.906 108.495 101.906 107.562V104.58H107.058V112H105.476V105.91H103.39V107.562C103.39 108.271 103.334 108.906 103.222 109.466C103.119 110.026 102.951 110.502 102.718 110.894C102.494 111.286 102.195 111.589 101.822 111.804C101.458 112.009 101.019 112.112 100.506 112.112V110.628ZM108.916 104.58H110.484V107.254H111.926C112.943 107.254 113.68 107.464 114.138 107.884C114.595 108.295 114.824 108.878 114.824 109.634C114.824 110.381 114.59 110.964 114.124 111.384C113.666 111.795 112.934 112 111.926 112H108.916V104.58ZM111.926 110.67C112.43 110.67 112.775 110.586 112.962 110.418C113.148 110.25 113.242 109.984 113.242 109.62C113.242 109.265 113.148 109.004 112.962 108.836C112.775 108.668 112.43 108.584 111.926 108.584H110.484V110.67H111.926Z" fill="white"/>
</svg>
