<svg width="200" height="200" viewBox="0 0 200 200" fill="none" xmlns="http://www.w3.org/2000/svg">
<path d="M107.271 35.7666C134.084 12.7792 177.144 26.8248 184.909 61.0898L184.911 61.0996L184.914 61.1104C188.571 76.2455 185.834 92.5326 177.426 105.674L177.425 105.675C171.771 114.524 162.095 124.57 151.362 134.249C140.651 143.909 128.977 153.125 119.409 160.318C116.758 162.312 111.7 165.919 107.286 169.04C105.083 170.598 103.046 172.031 101.561 173.074C100.932 173.515 100.402 173.886 100 174.168C99.5979 173.886 99.0675 173.515 98.4395 173.074C96.9537 172.031 94.9169 170.598 92.7139 169.04C88.3003 165.919 83.2415 162.312 80.5908 160.318C71.0227 153.125 59.3487 143.909 48.6377 134.249C37.9047 124.57 28.2285 114.524 22.5752 105.675L22.5742 105.674C14.1655 92.5327 11.4292 76.2455 15.0859 61.1104L15.0889 61.0996L15.0908 61.0898C22.8558 26.8248 65.9162 12.7792 92.7295 35.7666L92.7334 35.7695C94.2273 37.0418 95.6136 38.4601 97.0938 39.9766C97.6934 40.5912 98.3087 41.2211 98.9424 41.8516L100 42.9043L101.058 41.8516C101.691 41.2212 102.306 40.5912 102.905 39.9766L102.906 39.9775C104.386 38.4609 105.773 37.0419 107.267 35.7695L107.271 35.7666Z" stroke="white" stroke-width="3"/>
<path d="M67.5784 83.2H74.8024V93H73.1364V84.614H69.2444V93H67.5784V83.2ZM79.8064 93.112C78.845 93.112 78.0797 92.8227 77.5104 92.244C76.9504 91.656 76.6704 90.8113 76.6704 89.71V88.716C76.6704 88.212 76.7404 87.7593 76.8804 87.358C77.0297 86.9567 77.2397 86.616 77.5104 86.336C77.7904 86.056 78.1217 85.8413 78.5044 85.692C78.8964 85.5427 79.3304 85.468 79.8064 85.468C80.2824 85.468 80.7117 85.5427 81.0944 85.692C81.4864 85.8413 81.8177 86.056 82.0884 86.336C82.3684 86.616 82.5784 86.9567 82.7184 87.358C82.8677 87.7593 82.9424 88.212 82.9424 88.716V89.71C82.9424 90.8113 82.6577 91.656 82.0884 92.244C81.5284 92.8227 80.7677 93.112 79.8064 93.112ZM79.8064 91.754C80.2917 91.754 80.6697 91.5953 80.9404 91.278C81.2204 90.9607 81.3604 90.438 81.3604 89.71V88.716C81.3604 88.072 81.2204 87.596 80.9404 87.288C80.6697 86.98 80.2917 86.826 79.8064 86.826C79.321 86.826 78.9384 86.98 78.6584 87.288C78.3877 87.596 78.2524 88.072 78.2524 88.716V89.71C78.2524 90.438 78.3877 90.9607 78.6584 91.278C78.9384 91.5953 79.321 91.754 79.8064 91.754ZM87.2969 93.112C86.8302 93.112 86.4102 93.0373 86.0369 92.888C85.6636 92.7387 85.3416 92.5193 85.0709 92.23C84.8002 91.9407 84.5902 91.586 84.4409 91.166C84.3009 90.746 84.2309 90.2607 84.2309 89.71V88.716C84.2309 88.212 84.3009 87.7593 84.4409 87.358C84.5902 86.9567 84.8002 86.616 85.0709 86.336C85.3416 86.056 85.6636 85.8413 86.0369 85.692C86.4102 85.5427 86.8302 85.468 87.2969 85.468C88.1649 85.468 88.8556 85.692 89.3689 86.14C89.8822 86.588 90.1669 87.1713 90.2229 87.89H88.6269C88.5709 87.6007 88.4356 87.3533 88.2209 87.148C88.0156 86.9333 87.7076 86.826 87.2969 86.826C86.8489 86.826 86.4896 86.98 86.2189 87.288C85.9482 87.596 85.8129 88.072 85.8129 88.716V89.71C85.8129 90.438 85.9482 90.9607 86.2189 91.278C86.4896 91.5953 86.8489 91.754 87.2969 91.754C87.7076 91.754 88.0156 91.6467 88.2209 91.432C88.4356 91.2173 88.5709 90.97 88.6269 90.69H90.2229C90.1109 91.446 89.8122 92.0387 89.3269 92.468C88.8416 92.8973 88.1649 93.112 87.2969 93.112ZM93.3784 86.91H91.0964V85.58H97.2284V86.91H94.9464V93H93.3784V86.91ZM100.056 93.084C99.3745 93.084 98.8425 92.8973 98.4598 92.524C98.0772 92.1413 97.8858 91.6 97.8858 90.9C97.8858 90.172 98.1005 89.6167 98.5298 89.234C98.9592 88.842 99.6172 88.646 100.504 88.646H102.142V88.086C102.142 87.6287 102.044 87.302 101.848 87.106C101.652 86.9007 101.335 86.798 100.896 86.798C100.457 86.798 100.149 86.8773 99.9718 87.036C99.7945 87.1947 99.6965 87.3907 99.6778 87.624H98.2498C98.2592 87.2973 98.3152 87.0033 98.4178 86.742C98.5298 86.4713 98.6932 86.2427 98.9078 86.056C99.1225 85.8693 99.3932 85.7247 99.7198 85.622C100.056 85.5193 100.457 85.468 100.924 85.468C101.885 85.468 102.581 85.6827 103.01 86.112C103.449 86.532 103.668 87.19 103.668 88.086V93H102.282V91.796C102.198 91.964 102.095 92.1273 101.974 92.286C101.853 92.4353 101.703 92.5707 101.526 92.692C101.358 92.8133 101.153 92.9113 100.91 92.986C100.667 93.0513 100.383 93.084 100.056 93.084ZM100.532 91.782C101.036 91.782 101.428 91.642 101.708 91.362C101.997 91.0727 102.142 90.662 102.142 90.13V89.794H100.63C100.173 89.794 99.8505 89.8827 99.6638 90.06C99.4865 90.228 99.3978 90.48 99.3978 90.816C99.3978 91.1147 99.4912 91.3527 99.6778 91.53C99.8645 91.698 100.149 91.782 100.532 91.782ZM105.457 85.58H108.313C109.293 85.58 110.002 85.7713 110.441 86.154C110.889 86.5273 111.113 87.0127 111.113 87.61C111.113 87.9553 111.005 88.268 110.791 88.548C110.585 88.828 110.333 89.0193 110.035 89.122C110.492 89.2433 110.833 89.4627 111.057 89.78C111.281 90.088 111.393 90.4613 111.393 90.9C111.393 91.544 111.169 92.0573 110.721 92.44C110.273 92.8133 109.563 93 108.593 93H105.457V85.58ZM108.593 91.74C109.041 91.74 109.358 91.6607 109.545 91.502C109.731 91.334 109.825 91.0913 109.825 90.774C109.825 90.466 109.731 90.2327 109.545 90.074C109.358 89.906 109.041 89.822 108.593 89.822H106.969V91.74H108.593ZM108.313 88.618C108.761 88.618 109.078 88.5433 109.265 88.394C109.451 88.2353 109.545 88.0113 109.545 87.722C109.545 87.4513 109.451 87.2367 109.265 87.078C109.078 86.9193 108.761 86.84 108.313 86.84H106.969V88.618H108.313ZM112.949 85.58H114.391V90.886L117.513 85.58H119.067V93H117.611V87.68L114.489 93H112.949V85.58ZM122.431 86.91H120.149V85.58H126.281V86.91H123.999V93H122.431V86.91ZM127.373 85.58H128.941V88.254H130.383C131.4 88.254 132.137 88.464 132.595 88.884C133.052 89.2947 133.281 89.878 133.281 90.634C133.281 91.3807 133.047 91.964 132.581 92.384C132.123 92.7947 131.391 93 130.383 93H127.373V85.58ZM130.383 91.67C130.887 91.67 131.232 91.586 131.419 91.418C131.605 91.25 131.699 90.984 131.699 90.62C131.699 90.2653 131.605 90.004 131.419 89.836C131.232 89.668 130.887 89.584 130.383 89.584H128.941V91.67H130.383ZM91.1174 106H85.7554V98.58H87.3234V104.67H90.0114V98.58H91.5934V104.67H92.5734V107.75H91.1174V106ZM96.6485 106.112C96.1818 106.112 95.7618 106.037 95.3885 105.888C95.0151 105.739 94.6931 105.519 94.4225 105.23C94.1518 104.941 93.9418 104.586 93.7925 104.166C93.6525 103.746 93.5825 103.261 93.5825 102.71V101.716C93.5825 100.671 93.8485 99.868 94.3805 99.308C94.9218 98.748 95.6545 98.468 96.5785 98.468C97.5025 98.468 98.2305 98.748 98.7625 99.308C99.3038 99.868 99.5745 100.68 99.5745 101.744V102.738H95.1645C95.1738 103.503 95.3091 104.04 95.5705 104.348C95.8318 104.656 96.1911 104.81 96.6485 104.81C97.0311 104.81 97.3158 104.717 97.5025 104.53C97.6985 104.343 97.8198 104.129 97.8665 103.886H99.4345C99.3038 104.586 99.0051 105.132 98.5385 105.524C98.0811 105.916 97.4511 106.112 96.6485 106.112ZM96.6065 99.77C96.1585 99.77 95.8085 99.9053 95.5565 100.176C95.3138 100.447 95.1831 100.909 95.1645 101.562H98.0905C98.0718 100.909 97.9365 100.447 97.6845 100.176C97.4325 99.9053 97.0731 99.77 96.6065 99.77ZM100.506 104.628C101.038 104.553 101.402 104.259 101.598 103.746C101.803 103.223 101.906 102.495 101.906 101.562V98.58H107.058V106H105.476V99.91H103.39V101.562C103.39 102.271 103.334 102.906 103.222 103.466C103.119 104.026 102.951 104.502 102.718 104.894C102.494 105.286 102.195 105.589 101.822 105.804C101.458 106.009 101.019 106.112 100.506 106.112V104.628ZM108.916 98.58H110.484V101.254H111.926C112.943 101.254 113.68 101.464 114.138 101.884C114.595 102.295 114.824 102.878 114.824 103.634C114.824 104.381 114.59 104.964 114.124 105.384C113.666 105.795 112.934 106 111.926 106H108.916V98.58ZM111.926 104.67C112.43 104.67 112.775 104.586 112.962 104.418C113.148 104.25 113.242 103.984 113.242 103.62C113.242 103.265 113.148 103.004 112.962 102.836C112.775 102.668 112.43 102.584 111.926 102.584H110.484V104.67H111.926Z" fill="white"/>
</svg>
