<svg width="200" height="200" viewBox="0 0 200 200" fill="none" xmlns="http://www.w3.org/2000/svg">
<path d="M105.989 51.0605L106.706 55.9414L108.827 51.4873L126.526 14.3213L120.272 55.0322L119.524 59.9033L122.859 56.2754L150.699 25.9893L132.755 63.0498L130.61 67.4785L134.86 64.999L170.372 44.2822L142.325 74.3994L138.978 77.9941L143.763 76.8828L183.795 67.5811L148.137 88.0723L143.882 90.5176L148.776 90.8691L189.768 93.8145L149.67 102.855L144.884 103.935L149.455 105.717L187.765 120.649L146.792 117.437L141.897 117.053L145.741 120.106L177.954 145.695L139.756 130.518L135.187 128.702L137.964 132.759L161.221 166.728L129.186 140.938L125.35 137.849L126.812 142.551L139.049 181.877L116.022 147.77L113.264 143.683L113.279 148.613L113.413 189.799L101.436 150.406L100 145.687L98.5654 150.406L86.5859 189.803L86.7207 148.613L86.7373 143.683L83.9775 147.77L60.9502 181.877L73.1875 142.551L74.6504 137.849L70.8145 140.938L38.7783 166.728L62.0371 132.759L64.8145 128.702L60.2451 130.518L22.0449 145.695L54.2588 120.106L58.1035 117.053L53.209 117.437L12.2344 120.649L50.5449 105.717L55.1162 103.935L50.3301 102.855L10.2314 93.8145L51.2246 90.8691L56.1191 90.5176L51.8643 88.0723L16.2041 67.5811L56.2383 76.8828L61.0234 77.9941L57.6748 74.3994L29.627 44.2822L65.1396 64.999L69.3906 67.4785L67.2461 63.0498L49.2998 25.9883L77.1406 56.2754L80.4766 59.9033L79.7275 55.0322L73.4727 14.3213L91.1729 51.4873L93.2939 55.9414L94.0117 51.0605L100 10.3135L105.989 51.0605Z" stroke="white" stroke-width="3"/>
<path d="M68.0911 88.7979H75.3151V98.5979H73.6491V90.2119H69.7571V98.5979H68.0911V88.7979ZM80.3192 98.7099C79.3578 98.7099 78.5925 98.4206 78.0232 97.8419C77.4632 97.2539 77.1832 96.4092 77.1832 95.3079V94.3139C77.1832 93.8099 77.2532 93.3572 77.3932 92.9559C77.5425 92.5546 77.7525 92.2139 78.0232 91.9339C78.3032 91.6539 78.6345 91.4392 79.0172 91.2899C79.4092 91.1406 79.8432 91.0659 80.3192 91.0659C80.7952 91.0659 81.2245 91.1406 81.6072 91.2899C81.9992 91.4392 82.3305 91.6539 82.6012 91.9339C82.8812 92.2139 83.0912 92.5546 83.2312 92.9559C83.3805 93.3572 83.4552 93.8099 83.4552 94.3139V95.3079C83.4552 96.4092 83.1705 97.2539 82.6012 97.8419C82.0412 98.4206 81.2805 98.7099 80.3192 98.7099ZM80.3192 97.3519C80.8045 97.3519 81.1825 97.1932 81.4532 96.8759C81.7332 96.5586 81.8732 96.0359 81.8732 95.3079V94.3139C81.8732 93.6699 81.7332 93.1939 81.4532 92.8859C81.1825 92.5779 80.8045 92.4239 80.3192 92.4239C79.8338 92.4239 79.4512 92.5779 79.1712 92.8859C78.9005 93.1939 78.7652 93.6699 78.7652 94.3139V95.3079C78.7652 96.0359 78.9005 96.5586 79.1712 96.8759C79.4512 97.1932 79.8338 97.3519 80.3192 97.3519ZM87.8097 98.7099C87.343 98.7099 86.923 98.6352 86.5497 98.4859C86.1764 98.3366 85.8544 98.1172 85.5837 97.8279C85.313 97.5386 85.103 97.1839 84.9537 96.7639C84.8137 96.3439 84.7437 95.8586 84.7437 95.3079V94.3139C84.7437 93.8099 84.8137 93.3572 84.9537 92.9559C85.103 92.5546 85.313 92.2139 85.5837 91.9339C85.8544 91.6539 86.1764 91.4392 86.5497 91.2899C86.923 91.1406 87.343 91.0659 87.8097 91.0659C88.6777 91.0659 89.3684 91.2899 89.8817 91.7379C90.395 92.1859 90.6797 92.7692 90.7357 93.4879H89.1397C89.0837 93.1986 88.9484 92.9512 88.7337 92.7459C88.5284 92.5312 88.2204 92.4239 87.8097 92.4239C87.3617 92.4239 87.0024 92.5779 86.7317 92.8859C86.461 93.1939 86.3257 93.6699 86.3257 94.3139V95.3079C86.3257 96.0359 86.461 96.5586 86.7317 96.8759C87.0024 97.1932 87.3617 97.3519 87.8097 97.3519C88.2204 97.3519 88.5284 97.2446 88.7337 97.0299C88.9484 96.8152 89.0837 96.5679 89.1397 96.2879H90.7357C90.6237 97.0439 90.325 97.6366 89.8397 98.0659C89.3544 98.4952 88.6777 98.7099 87.8097 98.7099ZM93.8912 92.5079H91.6092V91.1779H97.7412V92.5079H95.4592V98.5979H93.8912V92.5079ZM100.569 98.6819C99.8873 98.6819 99.3553 98.4952 98.9726 98.1219C98.59 97.7392 98.3986 97.1979 98.3986 96.4979C98.3986 95.7699 98.6133 95.2146 99.0426 94.8319C99.472 94.4399 100.13 94.2439 101.017 94.2439H102.655V93.6839C102.655 93.2266 102.557 92.8999 102.361 92.7039C102.165 92.4986 101.847 92.3959 101.409 92.3959C100.97 92.3959 100.662 92.4752 100.485 92.6339C100.307 92.7926 100.209 92.9886 100.191 93.2219H98.7626C98.772 92.8952 98.828 92.6012 98.9306 92.3399C99.0426 92.0692 99.206 91.8406 99.4206 91.6539C99.6353 91.4672 99.906 91.3226 100.233 91.2199C100.569 91.1172 100.97 91.0659 101.437 91.0659C102.398 91.0659 103.093 91.2806 103.523 91.7099C103.961 92.1299 104.181 92.7879 104.181 93.6839V98.5979H102.795V97.3939C102.711 97.5619 102.608 97.7252 102.487 97.8839C102.365 98.0332 102.216 98.1686 102.039 98.2899C101.871 98.4112 101.665 98.5092 101.423 98.5839C101.18 98.6492 100.895 98.6819 100.569 98.6819ZM101.045 97.3799C101.549 97.3799 101.941 97.2399 102.221 96.9599C102.51 96.6706 102.655 96.2599 102.655 95.7279V95.3919H101.143C100.685 95.3919 100.363 95.4806 100.177 95.6579C99.9993 95.8259 99.9106 96.0779 99.9106 96.4139C99.9106 96.7126 100.004 96.9506 100.191 97.1279C100.377 97.2959 100.662 97.3799 101.045 97.3799ZM105.969 91.1779H108.825C109.805 91.1779 110.515 91.3692 110.953 91.7519C111.401 92.1252 111.625 92.6106 111.625 93.2079C111.625 93.5532 111.518 93.8659 111.303 94.1459C111.098 94.4259 110.846 94.6172 110.547 94.7199C111.005 94.8412 111.345 95.0606 111.569 95.3779C111.793 95.6859 111.905 96.0592 111.905 96.4979C111.905 97.1419 111.681 97.6552 111.233 98.0379C110.785 98.4112 110.076 98.5979 109.105 98.5979H105.969V91.1779ZM109.105 97.3379C109.553 97.3379 109.871 97.2586 110.057 97.0999C110.244 96.9319 110.337 96.6892 110.337 96.3719C110.337 96.0639 110.244 95.8306 110.057 95.6719C109.871 95.5039 109.553 95.4199 109.105 95.4199H107.481V97.3379H109.105ZM108.825 94.2159C109.273 94.2159 109.591 94.1412 109.777 93.9919C109.964 93.8332 110.057 93.6092 110.057 93.3199C110.057 93.0492 109.964 92.8346 109.777 92.6759C109.591 92.5172 109.273 92.4379 108.825 92.4379H107.481V94.2159H108.825ZM113.462 91.1779H114.904V96.4839L118.026 91.1779H119.58V98.5979H118.124V93.2779L115.002 98.5979H113.462V91.1779ZM122.944 92.5079H120.662V91.1779H126.794V92.5079H124.512V98.5979H122.944V92.5079ZM127.885 91.1779H129.453V93.8519H130.895C131.913 93.8519 132.65 94.0619 133.107 94.4819C133.565 94.8926 133.793 95.4759 133.793 96.2319C133.793 96.9786 133.56 97.5619 133.093 97.9819C132.636 98.3926 131.903 98.5979 130.895 98.5979H127.885V91.1779ZM130.895 97.2679C131.399 97.2679 131.745 97.1839 131.931 97.0159C132.118 96.8479 132.211 96.5819 132.211 96.2179C132.211 95.8632 132.118 95.6019 131.931 95.4339C131.745 95.2659 131.399 95.1819 130.895 95.1819H129.453V97.2679H130.895ZM91.6302 111.598H86.2682V104.178H87.8362V110.268H90.5242V104.178H92.1062V110.268H93.0862V113.348H91.6302V111.598ZM97.1613 111.71C96.6946 111.71 96.2746 111.635 95.9013 111.486C95.5279 111.337 95.2059 111.117 94.9353 110.828C94.6646 110.539 94.4546 110.184 94.3053 109.764C94.1653 109.344 94.0953 108.859 94.0953 108.308V107.314C94.0953 106.269 94.3613 105.466 94.8933 104.906C95.4346 104.346 96.1673 104.066 97.0913 104.066C98.0153 104.066 98.7433 104.346 99.2753 104.906C99.8166 105.466 100.087 106.278 100.087 107.342V108.336H95.6773C95.6866 109.101 95.8219 109.638 96.0833 109.946C96.3446 110.254 96.7039 110.408 97.1613 110.408C97.5439 110.408 97.8286 110.315 98.0153 110.128C98.2113 109.941 98.3326 109.727 98.3793 109.484H99.9473C99.8166 110.184 99.5179 110.73 99.0513 111.122C98.5939 111.514 97.9639 111.71 97.1613 111.71ZM97.1193 105.368C96.6713 105.368 96.3213 105.503 96.0693 105.774C95.8266 106.045 95.6959 106.507 95.6773 107.16H98.6033C98.5846 106.507 98.4493 106.045 98.1973 105.774C97.9453 105.503 97.5859 105.368 97.1193 105.368ZM101.019 110.226C101.551 110.151 101.915 109.857 102.111 109.344C102.316 108.821 102.419 108.093 102.419 107.16V104.178H107.571V111.598H105.989V105.508H103.903V107.16C103.903 107.869 103.847 108.504 103.735 109.064C103.632 109.624 103.464 110.1 103.231 110.492C103.007 110.884 102.708 111.187 102.335 111.402C101.971 111.607 101.532 111.71 101.019 111.71V110.226ZM109.428 104.178H110.996V106.852H112.438C113.456 106.852 114.193 107.062 114.65 107.482C115.108 107.893 115.336 108.476 115.336 109.232C115.336 109.979 115.103 110.562 114.636 110.982C114.179 111.393 113.446 111.598 112.438 111.598H109.428V104.178ZM112.438 110.268C112.942 110.268 113.288 110.184 113.474 110.016C113.661 109.848 113.754 109.582 113.754 109.218C113.754 108.863 113.661 108.602 113.474 108.434C113.288 108.266 112.942 108.182 112.438 108.182H110.996V110.268H112.438Z" fill="white"/>
</svg>
