<svg width="200" height="200" viewBox="0 0 200 200" fill="none" xmlns="http://www.w3.org/2000/svg">
<path d="M98.8213 2.54785C98.982 1.19474 100.889 1.15221 101.158 2.4209L101.179 2.54785L104.325 29.0635C108.47 63.9916 136.008 91.5303 170.936 95.6748L197.452 98.8213C198.849 98.9872 198.849 101.013 197.452 101.179L170.936 104.325C136.008 108.47 108.47 136.008 104.325 170.936L101.179 197.452C101.013 198.849 98.9872 198.849 98.8213 197.452L95.6748 170.936C91.5303 136.008 63.9916 108.47 29.0635 104.325L2.54785 101.179C1.15136 101.013 1.15075 98.9867 2.54688 98.8203L29.0635 95.6748C63.9917 91.5304 91.5304 63.9917 95.6748 29.0635L98.8213 2.54785Z" stroke="white" stroke-width="3"/>
<path d="M68.0784 91.2H75.3024V101H73.6364V92.614H69.7444V101H68.0784V91.2ZM80.3064 101.112C79.345 101.112 78.5797 100.823 78.0104 100.244C77.4504 99.656 77.1704 98.8113 77.1704 97.71V96.716C77.1704 96.212 77.2404 95.7593 77.3804 95.358C77.5297 94.9567 77.7397 94.616 78.0104 94.336C78.2904 94.056 78.6217 93.8413 79.0044 93.692C79.3964 93.5427 79.8304 93.468 80.3064 93.468C80.7824 93.468 81.2117 93.5427 81.5944 93.692C81.9864 93.8413 82.3177 94.056 82.5884 94.336C82.8684 94.616 83.0784 94.9567 83.2184 95.358C83.3677 95.7593 83.4424 96.212 83.4424 96.716V97.71C83.4424 98.8113 83.1577 99.656 82.5884 100.244C82.0284 100.823 81.2677 101.112 80.3064 101.112ZM80.3064 99.754C80.7917 99.754 81.1697 99.5953 81.4404 99.278C81.7204 98.9607 81.8604 98.438 81.8604 97.71V96.716C81.8604 96.072 81.7204 95.596 81.4404 95.288C81.1697 94.98 80.7917 94.826 80.3064 94.826C79.821 94.826 79.4384 94.98 79.1584 95.288C78.8877 95.596 78.7524 96.072 78.7524 96.716V97.71C78.7524 98.438 78.8877 98.9607 79.1584 99.278C79.4384 99.5953 79.821 99.754 80.3064 99.754ZM87.7969 101.112C87.3302 101.112 86.9102 101.037 86.5369 100.888C86.1636 100.739 85.8416 100.519 85.5709 100.23C85.3002 99.9407 85.0902 99.586 84.9409 99.166C84.8009 98.746 84.7309 98.2607 84.7309 97.71V96.716C84.7309 96.212 84.8009 95.7593 84.9409 95.358C85.0902 94.9567 85.3002 94.616 85.5709 94.336C85.8416 94.056 86.1636 93.8413 86.5369 93.692C86.9102 93.5427 87.3302 93.468 87.7969 93.468C88.6649 93.468 89.3556 93.692 89.8689 94.14C90.3822 94.588 90.6669 95.1713 90.7229 95.89H89.1269C89.0709 95.6007 88.9356 95.3533 88.7209 95.148C88.5156 94.9333 88.2076 94.826 87.7969 94.826C87.3489 94.826 86.9896 94.98 86.7189 95.288C86.4482 95.596 86.3129 96.072 86.3129 96.716V97.71C86.3129 98.438 86.4482 98.9607 86.7189 99.278C86.9896 99.5953 87.3489 99.754 87.7969 99.754C88.2076 99.754 88.5156 99.6467 88.7209 99.432C88.9356 99.2173 89.0709 98.97 89.1269 98.69H90.7229C90.6109 99.446 90.3122 100.039 89.8269 100.468C89.3416 100.897 88.6649 101.112 87.7969 101.112ZM93.8784 94.91H91.5964V93.58H97.7284V94.91H95.4464V101H93.8784V94.91ZM100.556 101.084C99.8745 101.084 99.3425 100.897 98.9598 100.524C98.5772 100.141 98.3858 99.6 98.3858 98.9C98.3858 98.172 98.6005 97.6167 99.0298 97.234C99.4592 96.842 100.117 96.646 101.004 96.646H102.642V96.086C102.642 95.6287 102.544 95.302 102.348 95.106C102.152 94.9007 101.835 94.798 101.396 94.798C100.957 94.798 100.649 94.8773 100.472 95.036C100.295 95.1947 100.197 95.3907 100.178 95.624H98.7498C98.7592 95.2973 98.8152 95.0033 98.9178 94.742C99.0298 94.4713 99.1932 94.2427 99.4078 94.056C99.6225 93.8693 99.8932 93.7247 100.22 93.622C100.556 93.5193 100.957 93.468 101.424 93.468C102.385 93.468 103.081 93.6827 103.51 94.112C103.949 94.532 104.168 95.19 104.168 96.086V101H102.782V99.796C102.698 99.964 102.595 100.127 102.474 100.286C102.353 100.435 102.203 100.571 102.026 100.692C101.858 100.813 101.653 100.911 101.41 100.986C101.167 101.051 100.883 101.084 100.556 101.084ZM101.032 99.782C101.536 99.782 101.928 99.642 102.208 99.362C102.497 99.0727 102.642 98.662 102.642 98.13V97.794H101.13C100.673 97.794 100.351 97.8827 100.164 98.06C99.9865 98.228 99.8978 98.48 99.8978 98.816C99.8978 99.1147 99.9912 99.3527 100.178 99.53C100.365 99.698 100.649 99.782 101.032 99.782ZM105.957 93.58H108.813C109.793 93.58 110.502 93.7713 110.941 94.154C111.389 94.5273 111.613 95.0127 111.613 95.61C111.613 95.9553 111.505 96.268 111.291 96.548C111.085 96.828 110.833 97.0193 110.535 97.122C110.992 97.2433 111.333 97.4627 111.557 97.78C111.781 98.088 111.893 98.4613 111.893 98.9C111.893 99.544 111.669 100.057 111.221 100.44C110.773 100.813 110.063 101 109.093 101H105.957V93.58ZM109.093 99.74C109.541 99.74 109.858 99.6607 110.045 99.502C110.231 99.334 110.325 99.0913 110.325 98.774C110.325 98.466 110.231 98.2327 110.045 98.074C109.858 97.906 109.541 97.822 109.093 97.822H107.469V99.74H109.093ZM108.813 96.618C109.261 96.618 109.578 96.5433 109.765 96.394C109.951 96.2353 110.045 96.0113 110.045 95.722C110.045 95.4513 109.951 95.2367 109.765 95.078C109.578 94.9193 109.261 94.84 108.813 94.84H107.469V96.618H108.813ZM113.449 93.58H114.891V98.886L118.013 93.58H119.567V101H118.111V95.68L114.989 101H113.449V93.58ZM122.931 94.91H120.649V93.58H126.781V94.91H124.499V101H122.931V94.91ZM127.873 93.58H129.441V96.254H130.883C131.9 96.254 132.637 96.464 133.095 96.884C133.552 97.2947 133.781 97.878 133.781 98.634C133.781 99.3807 133.547 99.964 133.081 100.384C132.623 100.795 131.891 101 130.883 101H127.873V93.58ZM130.883 99.67C131.387 99.67 131.732 99.586 131.919 99.418C132.105 99.25 132.199 98.984 132.199 98.62C132.199 98.2653 132.105 98.004 131.919 97.836C131.732 97.668 131.387 97.584 130.883 97.584H129.441V99.67H130.883ZM91.6174 114H86.2554V106.58H87.8234V112.67H90.5114V106.58H92.0934V112.67H93.0734V115.75H91.6174V114ZM97.1485 114.112C96.6818 114.112 96.2618 114.037 95.8885 113.888C95.5151 113.739 95.1931 113.519 94.9225 113.23C94.6518 112.941 94.4418 112.586 94.2925 112.166C94.1525 111.746 94.0825 111.261 94.0825 110.71V109.716C94.0825 108.671 94.3485 107.868 94.8805 107.308C95.4218 106.748 96.1545 106.468 97.0785 106.468C98.0025 106.468 98.7305 106.748 99.2625 107.308C99.8038 107.868 100.074 108.68 100.074 109.744V110.738H95.6645C95.6738 111.503 95.8091 112.04 96.0705 112.348C96.3318 112.656 96.6911 112.81 97.1485 112.81C97.5311 112.81 97.8158 112.717 98.0025 112.53C98.1985 112.343 98.3198 112.129 98.3665 111.886H99.9345C99.8038 112.586 99.5051 113.132 99.0385 113.524C98.5811 113.916 97.9511 114.112 97.1485 114.112ZM97.1065 107.77C96.6585 107.77 96.3085 107.905 96.0565 108.176C95.8138 108.447 95.6831 108.909 95.6645 109.562H98.5905C98.5718 108.909 98.4365 108.447 98.1845 108.176C97.9325 107.905 97.5731 107.77 97.1065 107.77ZM101.006 112.628C101.538 112.553 101.902 112.259 102.098 111.746C102.303 111.223 102.406 110.495 102.406 109.562V106.58H107.558V114H105.976V107.91H103.89V109.562C103.89 110.271 103.834 110.906 103.722 111.466C103.619 112.026 103.451 112.502 103.218 112.894C102.994 113.286 102.695 113.589 102.322 113.804C101.958 114.009 101.519 114.112 101.006 114.112V112.628ZM109.416 106.58H110.984V109.254H112.426C113.443 109.254 114.18 109.464 114.638 109.884C115.095 110.295 115.324 110.878 115.324 111.634C115.324 112.381 115.09 112.964 114.624 113.384C114.166 113.795 113.434 114 112.426 114H109.416V106.58ZM112.426 112.67C112.93 112.67 113.275 112.586 113.462 112.418C113.648 112.25 113.742 111.984 113.742 111.62C113.742 111.265 113.648 111.004 113.462 110.836C113.275 110.668 112.93 110.584 112.426 110.584H110.984V112.67H112.426Z" fill="white"/>
</svg>
