<svg width="194" height="200" viewBox="0 0 194 200" fill="none" xmlns="http://www.w3.org/2000/svg">
<path d="M124.855 68.5723L125.206 69.3066L126.014 69.4131L183.234 76.9551L141.375 116.691L140.784 117.252L140.933 118.052L151.44 174.802L100.716 147.271L100 146.884L99.2842 147.271L48.5586 174.802L59.0674 118.052L59.2158 117.252L58.625 116.691L16.7646 76.9551L73.9863 69.4131L74.7939 69.3066L75.1445 68.5723L100 16.4814L124.855 68.5723Z" stroke="white" stroke-width="3"/>
<path d="M67.5784 93.2H74.8024V103H73.1364V94.614H69.2444V103H67.5784V93.2ZM79.8064 103.112C78.845 103.112 78.0797 102.823 77.5104 102.244C76.9504 101.656 76.6704 100.811 76.6704 99.71V98.716C76.6704 98.212 76.7404 97.7593 76.8804 97.358C77.0297 96.9567 77.2397 96.616 77.5104 96.336C77.7904 96.056 78.1217 95.8413 78.5044 95.692C78.8964 95.5427 79.3304 95.468 79.8064 95.468C80.2824 95.468 80.7117 95.5427 81.0944 95.692C81.4864 95.8413 81.8177 96.056 82.0884 96.336C82.3684 96.616 82.5784 96.9567 82.7184 97.358C82.8677 97.7593 82.9424 98.212 82.9424 98.716V99.71C82.9424 100.811 82.6577 101.656 82.0884 102.244C81.5284 102.823 80.7677 103.112 79.8064 103.112ZM79.8064 101.754C80.2917 101.754 80.6697 101.595 80.9404 101.278C81.2204 100.961 81.3604 100.438 81.3604 99.71V98.716C81.3604 98.072 81.2204 97.596 80.9404 97.288C80.6697 96.98 80.2917 96.826 79.8064 96.826C79.321 96.826 78.9384 96.98 78.6584 97.288C78.3877 97.596 78.2524 98.072 78.2524 98.716V99.71C78.2524 100.438 78.3877 100.961 78.6584 101.278C78.9384 101.595 79.321 101.754 79.8064 101.754ZM87.2969 103.112C86.8302 103.112 86.4102 103.037 86.0369 102.888C85.6636 102.739 85.3416 102.519 85.0709 102.23C84.8002 101.941 84.5902 101.586 84.4409 101.166C84.3009 100.746 84.2309 100.261 84.2309 99.71V98.716C84.2309 98.212 84.3009 97.7593 84.4409 97.358C84.5902 96.9567 84.8002 96.616 85.0709 96.336C85.3416 96.056 85.6636 95.8413 86.0369 95.692C86.4102 95.5427 86.8302 95.468 87.2969 95.468C88.1649 95.468 88.8556 95.692 89.3689 96.14C89.8822 96.588 90.1669 97.1713 90.2229 97.89H88.6269C88.5709 97.6007 88.4356 97.3533 88.2209 97.148C88.0156 96.9333 87.7076 96.826 87.2969 96.826C86.8489 96.826 86.4896 96.98 86.2189 97.288C85.9482 97.596 85.8129 98.072 85.8129 98.716V99.71C85.8129 100.438 85.9482 100.961 86.2189 101.278C86.4896 101.595 86.8489 101.754 87.2969 101.754C87.7076 101.754 88.0156 101.647 88.2209 101.432C88.4356 101.217 88.5709 100.97 88.6269 100.69H90.2229C90.1109 101.446 89.8122 102.039 89.3269 102.468C88.8416 102.897 88.1649 103.112 87.2969 103.112ZM93.3784 96.91H91.0964V95.58H97.2284V96.91H94.9464V103H93.3784V96.91ZM100.056 103.084C99.3745 103.084 98.8425 102.897 98.4598 102.524C98.0772 102.141 97.8858 101.6 97.8858 100.9C97.8858 100.172 98.1005 99.6167 98.5298 99.234C98.9592 98.842 99.6172 98.646 100.504 98.646H102.142V98.086C102.142 97.6287 102.044 97.302 101.848 97.106C101.652 96.9007 101.335 96.798 100.896 96.798C100.457 96.798 100.149 96.8773 99.9718 97.036C99.7945 97.1947 99.6965 97.3907 99.6778 97.624H98.2498C98.2592 97.2973 98.3152 97.0033 98.4178 96.742C98.5298 96.4713 98.6932 96.2427 98.9078 96.056C99.1225 95.8693 99.3932 95.7247 99.7198 95.622C100.056 95.5193 100.457 95.468 100.924 95.468C101.885 95.468 102.581 95.6827 103.01 96.112C103.449 96.532 103.668 97.19 103.668 98.086V103H102.282V101.796C102.198 101.964 102.095 102.127 101.974 102.286C101.853 102.435 101.703 102.571 101.526 102.692C101.358 102.813 101.153 102.911 100.91 102.986C100.667 103.051 100.383 103.084 100.056 103.084ZM100.532 101.782C101.036 101.782 101.428 101.642 101.708 101.362C101.997 101.073 102.142 100.662 102.142 100.13V99.794H100.63C100.173 99.794 99.8505 99.8827 99.6638 100.06C99.4865 100.228 99.3978 100.48 99.3978 100.816C99.3978 101.115 99.4912 101.353 99.6778 101.53C99.8645 101.698 100.149 101.782 100.532 101.782ZM105.457 95.58H108.313C109.293 95.58 110.002 95.7713 110.441 96.154C110.889 96.5273 111.113 97.0127 111.113 97.61C111.113 97.9553 111.005 98.268 110.791 98.548C110.585 98.828 110.333 99.0193 110.035 99.122C110.492 99.2433 110.833 99.4627 111.057 99.78C111.281 100.088 111.393 100.461 111.393 100.9C111.393 101.544 111.169 102.057 110.721 102.44C110.273 102.813 109.563 103 108.593 103H105.457V95.58ZM108.593 101.74C109.041 101.74 109.358 101.661 109.545 101.502C109.731 101.334 109.825 101.091 109.825 100.774C109.825 100.466 109.731 100.233 109.545 100.074C109.358 99.906 109.041 99.822 108.593 99.822H106.969V101.74H108.593ZM108.313 98.618C108.761 98.618 109.078 98.5433 109.265 98.394C109.451 98.2353 109.545 98.0113 109.545 97.722C109.545 97.4513 109.451 97.2367 109.265 97.078C109.078 96.9193 108.761 96.84 108.313 96.84H106.969V98.618H108.313ZM112.949 95.58H114.391V100.886L117.513 95.58H119.067V103H117.611V97.68L114.489 103H112.949V95.58ZM122.431 96.91H120.149V95.58H126.281V96.91H123.999V103H122.431V96.91ZM127.373 95.58H128.941V98.254H130.383C131.4 98.254 132.137 98.464 132.595 98.884C133.052 99.2947 133.281 99.878 133.281 100.634C133.281 101.381 133.047 101.964 132.581 102.384C132.123 102.795 131.391 103 130.383 103H127.373V95.58ZM130.383 101.67C130.887 101.67 131.232 101.586 131.419 101.418C131.605 101.25 131.699 100.984 131.699 100.62C131.699 100.265 131.605 100.004 131.419 99.836C131.232 99.668 130.887 99.584 130.383 99.584H128.941V101.67H130.383ZM91.1174 116H85.7554V108.58H87.3234V114.67H90.0114V108.58H91.5934V114.67H92.5734V117.75H91.1174V116ZM96.6485 116.112C96.1818 116.112 95.7618 116.037 95.3885 115.888C95.0151 115.739 94.6931 115.519 94.4225 115.23C94.1518 114.941 93.9418 114.586 93.7925 114.166C93.6525 113.746 93.5825 113.261 93.5825 112.71V111.716C93.5825 110.671 93.8485 109.868 94.3805 109.308C94.9218 108.748 95.6545 108.468 96.5785 108.468C97.5025 108.468 98.2305 108.748 98.7625 109.308C99.3038 109.868 99.5745 110.68 99.5745 111.744V112.738H95.1645C95.1738 113.503 95.3091 114.04 95.5705 114.348C95.8318 114.656 96.1911 114.81 96.6485 114.81C97.0311 114.81 97.3158 114.717 97.5025 114.53C97.6985 114.343 97.8198 114.129 97.8665 113.886H99.4345C99.3038 114.586 99.0051 115.132 98.5385 115.524C98.0811 115.916 97.4511 116.112 96.6485 116.112ZM96.6065 109.77C96.1585 109.77 95.8085 109.905 95.5565 110.176C95.3138 110.447 95.1831 110.909 95.1645 111.562H98.0905C98.0718 110.909 97.9365 110.447 97.6845 110.176C97.4325 109.905 97.0731 109.77 96.6065 109.77ZM100.506 114.628C101.038 114.553 101.402 114.259 101.598 113.746C101.803 113.223 101.906 112.495 101.906 111.562V108.58H107.058V116H105.476V109.91H103.39V111.562C103.39 112.271 103.334 112.906 103.222 113.466C103.119 114.026 102.951 114.502 102.718 114.894C102.494 115.286 102.195 115.589 101.822 115.804C101.458 116.009 101.019 116.112 100.506 116.112V114.628ZM108.916 108.58H110.484V111.254H111.926C112.943 111.254 113.68 111.464 114.138 111.884C114.595 112.295 114.824 112.878 114.824 113.634C114.824 114.381 114.59 114.964 114.124 115.384C113.666 115.795 112.934 116 111.926 116H108.916V108.58ZM111.926 114.67C112.43 114.67 112.775 114.586 112.962 114.418C113.148 114.25 113.242 113.984 113.242 113.62C113.242 113.265 113.148 113.004 112.962 112.836C112.775 112.668 112.43 112.584 111.926 112.584H110.484V114.67H111.926Z" fill="white"/>
</svg>
