<svg width="200" height="200" viewBox="0 0 200 200" fill="none" xmlns="http://www.w3.org/2000/svg">
<path d="M107.271 35.7666C134.084 12.7792 177.144 26.8248 184.909 61.0898L184.911 61.0996L184.914 61.1104C188.571 76.2455 185.834 92.5326 177.426 105.674L177.425 105.675C171.771 114.524 162.095 124.57 151.362 134.249C140.651 143.909 128.977 153.125 119.409 160.318C116.758 162.312 111.7 165.919 107.286 169.04C105.083 170.598 103.046 172.031 101.561 173.074C100.932 173.515 100.402 173.886 100 174.168C99.5979 173.886 99.0675 173.515 98.4395 173.074C96.9537 172.031 94.9169 170.598 92.7139 169.04C88.3003 165.919 83.2415 162.312 80.5908 160.318C71.0227 153.125 59.3487 143.909 48.6377 134.249C37.9047 124.57 28.2285 114.524 22.5752 105.675L22.5742 105.674C14.1655 92.5327 11.4292 76.2455 15.0859 61.1104L15.0889 61.0996L15.0908 61.0898C22.8558 26.8248 65.9162 12.7792 92.7295 35.7666L92.7334 35.7695C94.2273 37.0418 95.6136 38.4601 97.0938 39.9766C97.6934 40.5912 98.3087 41.2211 98.9424 41.8516L100 42.9043L101.058 41.8516C101.691 41.2212 102.306 40.5912 102.905 39.9766L102.906 39.9775C104.386 38.4609 105.773 37.0419 107.267 35.7695L107.271 35.7666Z" stroke="white" stroke-width="3"/>
</svg>
