<svg width="200" height="200" viewBox="0 0 200 200" fill="none" xmlns="http://www.w3.org/2000/svg">
<path d="M105.989 51.0605L106.706 55.9414L108.827 51.4873L126.526 14.3213L120.272 55.0322L119.524 59.9033L122.859 56.2754L150.699 25.9893L132.755 63.0498L130.61 67.4785L134.86 64.999L170.372 44.2822L142.325 74.3994L138.978 77.9941L143.763 76.8828L183.795 67.5811L148.137 88.0723L143.882 90.5176L148.776 90.8691L189.768 93.8145L149.67 102.855L144.884 103.935L149.455 105.717L187.765 120.649L146.792 117.437L141.897 117.053L145.741 120.106L177.954 145.695L139.756 130.518L135.187 128.702L137.964 132.759L161.221 166.728L129.186 140.938L125.35 137.849L126.812 142.551L139.049 181.877L116.022 147.77L113.264 143.683L113.279 148.613L113.413 189.799L101.436 150.406L100 145.687L98.5654 150.406L86.5859 189.803L86.7207 148.613L86.7373 143.683L83.9775 147.77L60.9502 181.877L73.1875 142.551L74.6504 137.849L70.8145 140.938L38.7783 166.728L62.0371 132.759L64.8145 128.702L60.2451 130.518L22.0449 145.695L54.2588 120.106L58.1035 117.053L53.209 117.437L12.2344 120.649L50.5449 105.717L55.1162 103.935L50.3301 102.855L10.2314 93.8145L51.2246 90.8691L56.1191 90.5176L51.8643 88.0723L16.2041 67.5811L56.2383 76.8828L61.0234 77.9941L57.6748 74.3994L29.627 44.2822L65.1396 64.999L69.3906 67.4785L67.2461 63.0498L49.2998 25.9883L77.1406 56.2754L80.4766 59.9033L79.7275 55.0322L73.4727 14.3213L91.1729 51.4873L93.2939 55.9414L94.0117 51.0605L100 10.3135L105.989 51.0605Z" stroke="white" stroke-width="3"/>
</svg>
