<svg width="200" height="200" viewBox="0 0 200 200" fill="none" xmlns="http://www.w3.org/2000/svg">
<path d="M98.8213 2.54785C98.982 1.19474 100.889 1.15221 101.158 2.4209L101.179 2.54785L104.325 29.0635C108.47 63.9916 136.008 91.5303 170.936 95.6748L197.452 98.8213C198.849 98.9872 198.849 101.013 197.452 101.179L170.936 104.325C136.008 108.47 108.47 136.008 104.325 170.936L101.179 197.452C101.013 198.849 98.9872 198.849 98.8213 197.452L95.6748 170.936C91.5303 136.008 63.9916 108.47 29.0635 104.325L2.54785 101.179C1.15136 101.013 1.15075 98.9867 2.54688 98.8203L29.0635 95.6748C63.9917 91.5304 91.5304 63.9917 95.6748 29.0635L98.8213 2.54785Z" stroke="white" stroke-width="3"/>
</svg>
