<svg width="245" height="54" viewBox="0 0 245 54" fill="none" xmlns="http://www.w3.org/2000/svg">
<path d="M0 52.2949C0 49.9512 0.349935 47.6156 1.0498 45.2881C1.74967 42.9606 2.65299 40.8122 3.75977 38.8428C4.88281 36.8734 6.11979 34.9202 7.4707 32.9834C8.82161 31.0303 10.1725 29.1097 11.5234 27.2217C12.8743 25.3337 14.1032 23.4701 15.21 21.6309C16.333 19.7754 17.2445 17.806 17.9443 15.7227C18.6442 13.623 18.9941 11.5479 18.9941 9.49707C18.9941 7.28353 18.4082 5.56641 17.2363 4.3457C16.0807 3.10872 14.4206 2.49023 12.2559 2.49023C10.1562 2.49023 8.37402 3.09245 6.90918 4.29688C6.12793 4.96419 5.44434 6.19303 4.8584 7.9834C4.28874 9.75749 3.88997 11.4258 3.66211 12.9883C3.45052 14.5508 3.34473 15.8529 3.34473 16.8945C3.34473 17.0085 3.30404 17.1143 3.22266 17.2119C3.14128 17.2933 3.05176 17.334 2.9541 17.334H2.75879C2.66113 17.334 2.56348 17.2933 2.46582 17.2119C2.38444 17.1305 2.34375 17.041 2.34375 16.9434V5.63965C2.34375 5.23275 2.49837 4.85026 2.80762 4.49219C3.80046 3.54818 5.16764 2.81576 6.90918 2.29492C8.65072 1.75781 10.4167 1.48926 12.207 1.48926C14.0788 1.48926 15.7633 1.7985 17.2607 2.41699C18.7581 3.01921 19.9707 3.83301 20.8984 4.8584C21.8262 5.88379 22.5342 7.03939 23.0225 8.3252C23.5107 9.611 23.7549 10.9701 23.7549 12.4023C23.7549 14.1113 23.5026 15.804 22.998 17.4805C22.4935 19.1406 21.818 20.6868 20.9717 22.1191C20.1253 23.5352 19.1569 24.9349 18.0664 26.3184C16.9759 27.6855 15.8203 28.9876 14.5996 30.2246C13.3789 31.4616 12.1582 32.6742 10.9375 33.8623C9.73307 35.0342 8.58561 36.1898 7.49512 37.3291C6.40462 38.4684 5.4362 39.5833 4.58984 40.6738C3.74349 41.748 3.06803 42.8548 2.56348 43.9941C2.05892 45.1172 1.80664 46.2158 1.80664 47.29H12.2559C15.1693 47.29 17.57 46.0368 19.458 43.5303C21.3623 41.0238 22.6237 37.4593 23.2422 32.8369C23.2422 32.723 23.291 32.6335 23.3887 32.5684C23.5026 32.487 23.6084 32.4626 23.7061 32.4951H23.9014C24.1292 32.5439 24.2432 32.6904 24.2432 32.9346C24.0153 35.0667 23.7223 37.4186 23.3643 39.9902C23.0225 42.5618 22.7376 45.0114 22.5098 47.3389L22.0947 51.3916L21.9971 52.2949C21.9971 52.3763 21.9564 52.4414 21.875 52.4902C21.7936 52.5391 21.7204 52.5553 21.6553 52.5391H21.5088C20.1253 52.3763 17.9525 52.2949 14.9902 52.2949H0ZM49.1455 46.1426C46.8669 50.7812 43.7663 53.1006 39.8438 53.1006C35.9212 53.1006 32.8125 50.7812 30.5176 46.1426C28.2389 41.5039 27.0996 35.2214 27.0996 27.2949C27.0996 19.3685 28.2389 13.0859 30.5176 8.44727C32.8125 3.80859 35.9212 1.48926 39.8438 1.48926C43.7663 1.48926 46.8669 3.80859 49.1455 8.44727C51.4404 13.0859 52.5879 19.3685 52.5879 27.2949C52.5879 35.2214 51.4404 41.5039 49.1455 46.1426ZM34.2773 8.93555C32.9915 13.2324 32.3486 19.3522 32.3486 27.2949C32.3486 35.2376 32.9915 41.3574 34.2773 45.6543C35.5794 49.9512 37.4349 52.0996 39.8438 52.0996C42.2526 52.0996 44.0999 49.9512 45.3857 45.6543C46.6878 41.3574 47.3389 35.2376 47.3389 27.2949C47.3389 19.3522 46.6878 13.2324 45.3857 8.93555C44.0999 4.63867 42.2526 2.49023 39.8438 2.49023C37.4349 2.49023 35.5794 4.63867 34.2773 8.93555ZM53.2227 52.2949C53.2227 49.9512 53.5726 47.6156 54.2725 45.2881C54.9723 42.9606 55.8757 40.8122 56.9824 38.8428C58.1055 36.8734 59.3424 34.9202 60.6934 32.9834C62.0443 31.0303 63.3952 29.1097 64.7461 27.2217C66.097 25.3337 67.3258 23.4701 68.4326 21.6309C69.5557 19.7754 70.4671 17.806 71.167 15.7227C71.8669 13.623 72.2168 11.5479 72.2168 9.49707C72.2168 7.28353 71.6309 5.56641 70.459 4.3457C69.3034 3.10872 67.6432 2.49023 65.4785 2.49023C63.3789 2.49023 61.5967 3.09245 60.1318 4.29688C59.3506 4.96419 58.667 6.19303 58.0811 7.9834C57.5114 9.75749 57.1126 11.4258 56.8848 12.9883C56.6732 14.5508 56.5674 15.8529 56.5674 16.8945C56.5674 17.0085 56.5267 17.1143 56.4453 17.2119C56.3639 17.2933 56.2744 17.334 56.1768 17.334H55.9814C55.8838 17.334 55.7861 17.2933 55.6885 17.2119C55.6071 17.1305 55.5664 17.041 55.5664 16.9434V5.63965C55.5664 5.23275 55.721 4.85026 56.0303 4.49219C57.0231 3.54818 58.3903 2.81576 60.1318 2.29492C61.8734 1.75781 63.6393 1.48926 65.4297 1.48926C67.3014 1.48926 68.986 1.7985 70.4834 2.41699C71.9808 3.01921 73.1934 3.83301 74.1211 4.8584C75.0488 5.88379 75.7568 7.03939 76.2451 8.3252C76.7334 9.611 76.9775 10.9701 76.9775 12.4023C76.9775 14.1113 76.7253 15.804 76.2207 17.4805C75.7161 19.1406 75.0407 20.6868 74.1943 22.1191C73.348 23.5352 72.3796 24.9349 71.2891 26.3184C70.1986 27.6855 69.043 28.9876 67.8223 30.2246C66.6016 31.4616 65.3809 32.6742 64.1602 33.8623C62.9557 35.0342 61.8083 36.1898 60.7178 37.3291C59.6273 38.4684 58.6589 39.5833 57.8125 40.6738C56.9661 41.748 56.2907 42.8548 55.7861 43.9941C55.2816 45.1172 55.0293 46.2158 55.0293 47.29H65.4785C68.3919 47.29 70.7926 46.0368 72.6807 43.5303C74.585 41.0238 75.8464 37.4593 76.4648 32.8369C76.4648 32.723 76.5137 32.6335 76.6113 32.5684C76.7253 32.487 76.8311 32.4626 76.9287 32.4951H77.124C77.3519 32.5439 77.4658 32.6904 77.4658 32.9346C77.238 35.0667 76.945 37.4186 76.5869 39.9902C76.2451 42.5618 75.9603 45.0114 75.7324 47.3389L75.3174 51.3916L75.2197 52.2949C75.2197 52.3763 75.179 52.4414 75.0977 52.4902C75.0163 52.5391 74.943 52.5553 74.8779 52.5391H74.7314C73.348 52.3763 71.1751 52.2949 68.2129 52.2949H53.2227ZM88.8672 50.0488C90.2507 51.416 91.8783 52.0996 93.75 52.0996C95.6217 52.0996 97.2412 51.416 98.6084 50.0488C99.9919 48.6654 101.025 46.8262 101.709 44.5312C102.393 42.2201 102.734 39.6077 102.734 36.6943C102.734 33.7809 102.393 31.1768 101.709 28.8818C101.025 26.5706 99.9919 24.7314 98.6084 23.3643C97.2412 21.9808 95.6217 21.2891 93.75 21.2891C91.8783 21.2891 90.2507 21.9808 88.8672 23.3643C87.5 24.7314 86.4665 26.5706 85.7666 28.8818C85.083 31.1768 84.7412 33.7809 84.7412 36.6943C84.7412 39.6077 85.083 42.2201 85.7666 44.5312C86.4665 46.8262 87.5 48.6654 88.8672 50.0488ZM79.4922 36.6943C79.4922 27.0101 81.5348 19.1976 85.6201 13.2568C89.7217 7.2998 95.5648 3.64583 103.149 2.29492V3.2959C98.8851 3.80046 95.2474 5.76172 92.2363 9.17969C89.2253 12.5977 87.0931 17.1387 85.8398 22.8027C88.0697 21.1263 90.7064 20.2881 93.75 20.2881C96.582 20.2881 99.0885 21.0368 101.27 22.5342C103.467 24.0316 105.135 26.0254 106.274 28.5156C107.414 30.9896 107.983 33.7158 107.983 36.6943C107.983 39.6729 107.414 42.4072 106.274 44.8975C105.135 47.3714 103.467 49.3571 101.27 50.8545C99.0885 52.3519 96.582 53.1006 93.75 53.1006C91.6178 53.1006 89.6484 52.6693 87.8418 51.8066C86.0352 50.9277 84.5296 49.7396 83.3252 48.2422C82.1208 46.7448 81.1768 45.0033 80.4932 43.0176C79.8258 41.0319 79.4922 38.9242 79.4922 36.6943ZM146.924 16.9434C146.924 17.041 146.875 17.1305 146.777 17.2119C146.696 17.2933 146.606 17.334 146.509 17.334H146.313C146.216 17.334 146.126 17.2933 146.045 17.2119C145.964 17.1143 145.923 17.0085 145.923 16.8945C145.923 15.8854 145.801 14.5915 145.557 13.0127C145.329 11.4339 144.922 9.76562 144.336 8.00781C143.75 6.23372 143.058 5.01302 142.261 4.3457C140.828 3.10872 139.16 2.49023 137.256 2.49023C133.415 2.49023 130.452 4.63867 128.369 8.93555C126.302 13.2324 125.269 19.3522 125.269 27.2949C125.269 35.2539 126.351 41.3818 128.516 45.6787C130.697 49.9593 133.813 52.0996 137.866 52.0996C139.266 52.0996 140.535 51.7985 141.675 51.1963C142.505 50.6917 142.92 49.5931 142.92 47.9004V32.5439C142.92 30.9163 142.448 29.7689 141.504 29.1016C140.576 28.4342 138.9 28.068 136.475 28.0029C136.361 28.0029 136.263 27.9622 136.182 27.8809C136.1 27.7832 136.06 27.6855 136.06 27.5879V27.3926C136.06 27.2949 136.1 27.2054 136.182 27.124C136.279 27.0426 136.377 27.002 136.475 27.002C136.979 27.0182 138.127 27.0752 139.917 27.1729C141.707 27.2542 142.993 27.2949 143.774 27.2949H147.07C147.835 27.2949 148.763 27.2542 149.854 27.1729C150.944 27.0752 151.782 27.0182 152.368 27.002C152.466 27.002 152.555 27.0426 152.637 27.124C152.718 27.2054 152.759 27.2949 152.759 27.3926V27.5879C152.759 27.6855 152.718 27.7832 152.637 27.8809C152.572 27.9622 152.482 28.0029 152.368 28.0029C150.692 28.0518 149.528 28.4098 148.877 29.0771C148.242 29.7445 147.925 30.9001 147.925 32.5439V48.9014C147.925 49.3734 147.705 49.8047 147.266 50.1953C146.37 51.0905 144.938 51.7985 142.969 52.3193C141.016 52.8402 138.786 53.1006 136.279 53.1006C132.975 53.1006 130.094 52.0589 127.637 49.9756C125.179 47.876 123.291 44.8812 121.973 40.9912C120.671 37.1012 120.02 32.5358 120.02 27.2949C120.02 22.054 120.671 17.4886 121.973 13.5986C123.291 9.70866 125.179 6.72201 127.637 4.63867C130.094 2.53906 132.975 1.48926 136.279 1.48926C138.444 1.48926 140.422 1.74154 142.212 2.24609C144.002 2.75065 145.337 3.43424 146.216 4.29688C146.688 4.76888 146.924 5.21647 146.924 5.63965V16.9434ZM176.245 48.1689C173.869 51.4567 170.646 53.1006 166.577 53.1006C162.508 53.1006 159.277 51.4567 156.885 48.1689C154.508 44.8812 153.32 40.4215 153.32 34.79C153.32 29.1585 154.508 24.707 156.885 21.4355C159.261 18.1478 162.492 16.5039 166.577 16.5039C170.646 16.5039 173.869 18.1478 176.245 21.4355C178.621 24.707 179.81 29.1585 179.81 34.79C179.81 40.4215 178.621 44.8812 176.245 48.1689ZM160.62 21.9971C159.22 24.9756 158.521 29.2399 158.521 34.79C158.521 40.3402 159.22 44.6126 160.62 47.6074C162.02 50.6022 164.006 52.0996 166.577 52.0996C169.149 52.0996 171.126 50.6022 172.51 47.6074C173.91 44.6126 174.609 40.3402 174.609 34.79C174.609 29.2399 173.91 24.9756 172.51 21.9971C171.126 19.0023 169.149 17.5049 166.577 17.5049C164.006 17.5049 162.02 19.0023 160.62 21.9971ZM203.345 47.0459C203.345 48.7223 203.613 49.7965 204.15 50.2686C204.704 50.7243 205.778 50.7324 207.373 50.293C207.65 50.2441 207.821 50.3418 207.886 50.5859L207.935 50.7568C208 51.0173 207.918 51.18 207.69 51.2451C207.088 51.4242 206.25 51.6357 205.176 51.8799C204.118 52.1077 203.239 52.3275 202.539 52.5391L201.245 52.9541C200.48 53.1982 199.805 53.0924 199.219 52.6367C198.633 52.1973 198.34 51.5706 198.34 50.7568V47.998C197.526 49.5931 196.322 50.8464 194.727 51.7578C193.148 52.653 191.414 53.1006 189.526 53.1006C186.955 53.1006 184.863 52.2868 183.252 50.6592C181.641 49.0153 180.835 47.0296 180.835 44.7021C180.835 43.3187 181.152 42.0166 181.787 40.7959C182.438 39.5589 183.276 38.4928 184.302 37.5977C185.343 36.6862 186.483 35.8398 187.72 35.0586C188.957 34.2611 190.194 33.5368 191.431 32.8857C192.684 32.2347 193.823 31.6162 194.849 31.0303C195.89 30.4443 196.729 29.8421 197.363 29.2236C198.014 28.5889 198.34 27.9622 198.34 27.3438V26.0498C198.34 23.3643 197.892 21.2891 196.997 19.8242C196.102 18.3431 194.849 17.6025 193.237 17.6025C192.57 17.6025 191.976 17.7246 191.455 17.9688C190.951 18.1966 190.527 18.5628 190.186 19.0674C189.844 19.5557 189.583 19.9707 189.404 20.3125C189.242 20.6543 189.038 21.1507 188.794 21.8018C188.354 22.9411 187.858 23.7386 187.305 24.1943C186.751 24.6338 186.198 24.6338 185.645 24.1943L184.595 23.3887C183.716 22.6888 183.626 21.7611 184.326 20.6055C185.124 19.2546 186.393 18.2373 188.135 17.5537C189.893 16.8538 191.707 16.5039 193.579 16.5039C196.59 16.5039 198.966 17.3665 200.708 19.0918C202.466 20.8008 203.345 22.9492 203.345 25.5371V47.0459ZM186.084 44.7021C186.084 46.8994 186.564 48.6654 187.524 50C188.485 51.3346 189.738 52.002 191.284 52.002C191.838 52.002 192.415 51.9206 193.018 51.7578C193.62 51.5951 194.238 51.3102 194.873 50.9033C195.524 50.4801 196.102 49.9674 196.606 49.3652C197.111 48.763 197.526 47.9736 197.852 46.9971C198.177 46.0205 198.34 44.9382 198.34 43.75V29.4922C197.949 29.8991 197.396 30.3548 196.68 30.8594C195.98 31.3639 195.264 31.8522 194.531 32.3242C193.815 32.7962 193.042 33.3252 192.212 33.9111C191.398 34.4971 190.633 35.1481 189.917 35.8643C189.217 36.5804 188.574 37.3617 187.988 38.208C187.402 39.0381 186.938 40.0146 186.597 41.1377C186.255 42.2445 186.084 43.4326 186.084 44.7021ZM212.793 52.2949C212.028 52.2949 211.1 52.3356 210.01 52.417C208.919 52.5146 208.081 52.5716 207.495 52.5879C207.397 52.5879 207.308 52.5472 207.227 52.4658C207.145 52.3844 207.104 52.2949 207.104 52.1973V52.002C207.104 51.9043 207.137 51.8148 207.202 51.7334C207.284 51.6357 207.381 51.5869 207.495 51.5869C209.172 51.5381 210.335 51.18 210.986 50.5127C211.637 49.8454 211.963 48.6898 211.963 47.0459V7.9834C211.963 7.26725 211.759 6.71387 211.353 6.32324C210.962 5.93262 210.409 5.7373 209.692 5.7373H208.447C208.35 5.7373 208.26 5.69661 208.179 5.61523C208.097 5.53385 208.057 5.44434 208.057 5.34668V5.15137C208.057 5.05371 208.097 4.96419 208.179 4.88281C208.26 4.78516 208.35 4.73633 208.447 4.73633C210.091 4.73633 211.637 4.32129 213.086 3.49121C214.535 2.64486 215.487 1.61133 215.942 0.390625C216.073 0.130208 216.211 0 216.357 0H216.553C216.65 0 216.74 0.0406901 216.821 0.12207C216.903 0.203451 216.943 0.292969 216.943 0.390625V47.0459C216.943 48.6898 217.269 49.8454 217.92 50.5127C218.571 51.18 219.735 51.5381 221.411 51.5869C221.525 51.5869 221.615 51.6357 221.68 51.7334C221.761 51.8148 221.802 51.9043 221.802 52.002V52.1973C221.802 52.2949 221.761 52.3844 221.68 52.4658C221.598 52.5472 221.509 52.5879 221.411 52.5879C220.825 52.5716 219.987 52.5146 218.896 52.417C217.806 52.3356 216.878 52.2949 216.113 52.2949H212.793ZM232.251 52.0996C233.569 52.0996 234.692 51.9206 235.62 51.5625C236.564 51.2044 237.272 50.7243 237.744 50.1221C238.216 49.5199 238.55 48.9014 238.745 48.2666C238.957 47.6156 239.062 46.9238 239.062 46.1914C239.062 45.1823 238.875 44.2301 238.501 43.335C238.127 42.4235 237.622 41.6178 236.987 40.918C236.369 40.2181 235.645 39.5508 234.814 38.916C234.001 38.265 233.138 37.6465 232.227 37.0605C231.331 36.4583 230.428 35.8561 229.517 35.2539C228.621 34.6517 227.759 34.0007 226.929 33.3008C226.115 32.6009 225.391 31.8685 224.756 31.1035C224.137 30.3385 223.641 29.4596 223.267 28.4668C222.892 27.4577 222.705 26.3835 222.705 25.2441C222.705 24.0885 222.892 23.0062 223.267 21.9971C223.657 20.988 224.243 20.0684 225.024 19.2383C225.806 18.3919 226.88 17.7246 228.247 17.2363C229.614 16.748 231.201 16.5039 233.008 16.5039C236.67 16.5039 239.551 17.5049 241.65 19.5068C241.96 19.8649 242.114 20.2474 242.114 20.6543V31.9336C242.114 32.0312 242.065 32.1289 241.968 32.2266C241.886 32.3079 241.797 32.3486 241.699 32.3486H241.504C241.406 32.3486 241.317 32.2998 241.235 32.2021C241.154 32.1045 241.113 31.9987 241.113 31.8848C241.113 31.1198 241.064 30.1921 240.967 29.1016C240.869 28.0111 240.715 26.7985 240.503 25.4639C240.291 24.113 239.966 22.8516 239.526 21.6797C239.103 20.5078 238.599 19.6452 238.013 19.0918C236.743 18.0339 235.14 17.5049 233.203 17.5049C231.169 17.5049 229.704 18.0257 228.809 19.0674C227.913 20.109 227.466 21.5007 227.466 23.2422C227.466 24.3978 227.653 25.4801 228.027 26.4893C228.418 27.4821 228.939 28.3529 229.59 29.1016C230.241 29.834 230.99 30.5339 231.836 31.2012C232.682 31.8522 233.569 32.4626 234.497 33.0322C235.425 33.6019 236.353 34.1715 237.28 34.7412C238.208 35.3109 239.095 35.9212 239.941 36.5723C240.788 37.207 241.536 37.8825 242.188 38.5986C242.839 39.3148 243.351 40.153 243.726 41.1133C244.116 42.0736 244.312 43.1152 244.312 44.2383C244.312 45.459 244.084 46.5902 243.628 47.6318C243.172 48.6572 242.48 49.5931 241.553 50.4395C240.625 51.2695 239.364 51.9206 237.769 52.3926C236.19 52.8646 234.351 53.1006 232.251 53.1006C228.117 53.1006 225.122 52.1973 223.267 50.3906C222.729 49.8535 222.461 49.3571 222.461 48.9014V37.5488C222.461 37.4512 222.502 37.3617 222.583 37.2803C222.664 37.1826 222.754 37.1338 222.852 37.1338H223.047C223.145 37.1338 223.234 37.1826 223.315 37.2803C223.413 37.3779 223.462 37.4837 223.462 37.5977C223.462 38.3626 223.511 39.2904 223.608 40.3809C223.706 41.4714 223.861 42.6839 224.072 44.0186C224.3 45.3532 224.634 46.6064 225.073 47.7783C225.513 48.9502 226.025 49.8047 226.611 50.3418C228.044 51.5137 229.924 52.0996 232.251 52.0996Z" fill="white"/>
</svg>
